<svg data-name="Layer 1" xmlns="http://www.w3.org/2000/svg" viewBox="0 0 69.83 36"><path d="M51.28 11.5a23.65 23.65 0 0 1-6.3 9.19 27.41 27.41 0 0 1-18.55 7 27.41 27.41 0 0 1-18.55-7 23.65 23.65 0 0 1-6.3-9.19H0a34.38 34.38 0 0 0 65.86 0z"/><path d="M19.92 20.46a18.57 18.57 0 0 1-15.9-9H2.45a22.89 22.89 0 0 0 6 8.59 26.6 26.6 0 0 0 18 6.79 26.6 26.6 0 0 0 18-6.79 22.89 22.89 0 0 0 6-8.59H35.81a18.57 18.57 0 0 1-15.89 9zM0 9.43h8.79l.07-2.53H3.94v-.97h4.73V3.39H3.94v-.85h4.97V0H0v9.43zm29.32-7.58V0h-8.21v1.83h5.29l-5.56 5.89v1.71h8.93V7.59h-5.89l5.44-5.74zM37.42 0c-.92 1.45-2.13 3.26-2.63 4.18-.5-.91-1.71-2.73-2.63-4.18h-2.35l3.9 5.73v.12a.37.37 0 0 1 0 .09v3.48h2V5.93a.38.38 0 0 1 0-.09v-.12L39.77 0h-2.35zm15.12 0h-.07c-.36 1.26-.92 3.13-1.39 4.79-.37 1.26-.68 2.39-.82 3.05-.34-1.52-1.62-5.63-2.34-7.84h-1.51c-.7 2.21-2 6.32-2.32 7.84-.14-.66-.45-1.79-.82-3-.46-1.66-1-3.53-1.39-4.8h-1.63l2.85 9.43h1.89c.6-1.94 1.79-5.84 2.18-7.39.39 1.55 1.59 5.45 2.18 7.39h1.89L54.11 0zm16.1 0h-.07c-1.11 1.59-2.79 3.89-3.29 4.73-.5-.84-2.18-3.14-3.29-4.73h-1.28l4 5.58a.34.34 0 0 1 .06.22v3.63h1.05V5.8a.34.34 0 0 1 .06-.22l4-5.58zM58.62 0h-1.7l-4.21 9.43h1.49l1.26-2.82h4.63l1 2.18.28.63h1.45L58.62 0zm-2.7 5.45l.19-.45 1.6-3.58 1.8 4zM16.69 0h-3.85L9.33 9.42h3.07l.58-1.74h3.57l.58 1.74h3.07L16.69 0zm-3 5.49c.41-1.2.76-2.33 1-3.13l.13-.4.13.4c.22.8.58 1.93 1 3.13z"/></svg>