<svg id="Layer_1" data-name="Layer 1" xmlns="http://www.w3.org/2000/svg" viewBox="0 0 69.98 36.07"><defs><style>.cls-1{fill:#fff}</style></defs><path class="cls-1" d="M61.39 18.49a23.7 23.7 0 0 1-6.31 9.21 27.47 27.47 0 0 1-18.59 7 27.47 27.47 0 0 1-18.59-7 23.7 23.7 0 0 1-6.31-9.21H10a34.45 34.45 0 0 0 66 0z" transform="translate(-10.01 -6.96)"/><path class="cls-1" d="M30 27.47a18.61 18.61 0 0 1-15.93-9h-1.6a22.94 22.94 0 0 0 6 8.61 26.65 26.65 0 0 0 18 6.8 26.65 26.65 0 0 0 18-6.8 22.94 22.94 0 0 0 6-8.61H45.89a18.61 18.61 0 0 1-15.89 9z" transform="translate(-10.01 -6.96)"/><path class="cls-1" d="M0 9.45h8.81l.07-2.54H3.95v-.97h4.74V3.4H3.95v-.85h4.98V0H0v9.45zm29.38-7.6V0h-8.23v1.84h5.3l-5.57 5.89v1.72h8.95V7.61h-5.91l5.46-5.76z"/><path class="cls-1" d="M47.51 7c-.92 1.45-2.14 3.27-2.64 4.18-.5-.91-1.71-2.74-2.64-4.18h-2.35l3.91 5.74v.12a.37.37 0 0 1 0 .09v3.48h2v-3.5a.38.38 0 0 1 0-.09v-.13L49.86 7h-2.35zm15.15 0h-.07c-.36 1.26-.92 3.14-1.39 4.8-.37 1.26-.68 2.4-.82 3.06-.31-1.53-1.62-5.65-2.32-7.86h-1.54c-.7 2.21-2 6.33-2.32 7.86-.14-.66-.45-1.8-.82-3.05-.46-1.66-1-3.54-1.39-4.81h-1.65l2.86 9.45h1.9c.6-1.95 1.79-5.85 2.19-7.41.39 1.55 1.59 5.46 2.19 7.41h1.89L64.22 7zm16.13 0h-.07c-1.11 1.6-2.8 3.9-3.3 4.74-.5-.84-2.19-3.14-3.3-4.74h-1.28l4 5.59a.34.34 0 0 1 .06.22v3.64H76v-3.68a.34.34 0 0 1 .06-.22L80 7zM68.75 7H67l-4.22 9.45h1.52l1.26-2.82h4.64l1 2.19.28.63H73L68.75 7zm-2.66 5.43l.19-.45 1.6-3.59 1.8 4zM26.73 7h-3.85l-3.52 9.44h3.08l.56-1.77h3.57l.58 1.74h3.08L26.73 7zm-3.05 5.51c.41-1.2.76-2.34 1-3.13l.13-.4.13.4c.22.8.58 1.93 1 3.13z" transform="translate(-10.01 -6.96)"/></svg>